<svg id="06d7346a-0260-4114-818e-bf4083c08c9a" data-name="Calque 1" xmlns="http://www.w3.org/2000/svg" viewBox="0 0 200 200"><title>neutre</title><path d="M188.92,30.15V27.22a21.22,21.22,0,0,0-42.44,0v2.93Z" fill="#000"/><path d="M139.44,173.15H23a9.59,9.59,0,0,0,0,19.17H152.6Z" fill="#000"/><path d="M134.08,58.22H23a9.59,9.59,0,0,0,0,19.17H134.08Z" fill="#000"/><path d="M134.08,96.51H23a9.59,9.59,0,0,0,0,19.17H134.08Z" fill="#000"/><path d="M134.08,134.81H23A9.59,9.59,0,0,0,23,154H134.08Z" fill="#000"/><path d="M146.52,42.59v119l19.32,27.91a2.35,2.35,0,0,0,3.84,0L189,161.59v-119Z" fill="#000"/></svg>