<?xml version="1.0" encoding="utf-8"?>
<!-- Generator: Adobe Illustrator 23.0.1, SVG Export Plug-In . SVG Version: 6.00 Build 0)  -->
<svg version="1.1" xmlns="http://www.w3.org/2000/svg" xmlns:xlink="http://www.w3.org/1999/xlink" x="0px" y="0px"
	 viewBox="0 0 1452 328.8" style="enable-background:new 0 0 1452 328.8;" xml:space="preserve">
<style type="text/css">
	.st0{fill-opacity:0;}
	.st1{fill:#FFFFFF;}
	.st2{opacity:0.5;}
	.st3{fill:none;stroke:#FFFFFF;stroke-miterlimit:10;}
	.st4{fill:#FC0D1A;}
</style>
<g id="fond">
</g>
<g id="Calque_1">
	<title>Fichier 2</title>
	<g>
		<g id="Calque_1-2">
			<rect y="0.7" class="st0" width="1452" height="327"/>
			<path class="st1" d="M764,122.1h7c0.8,0,1.7,0.1,2.5,0.3c0.8,0.2,1.5,0.6,2.2,1c0.7,0.4,1.3,0.9,1.8,1.5c0.6,0.6,1,1.2,1.4,1.9
				c0.4,0.7,0.7,1.5,0.9,2.3c0.2,0.8,0.3,1.7,0.3,2.5c0,0.9-0.1,1.7-0.3,2.5c-0.2,0.8-0.5,1.6-0.9,2.3c-0.8,1.4-1.9,2.6-3.2,3.4
				c-1.4,0.8-3,1.2-4.7,1.2h-7v-2.1h1.8v-14.6H764V122.1z M768.2,124.2v14.6h3c0.9,0,1.7-0.2,2.5-0.6c0.8-0.4,1.4-0.9,2-1.6
				c0.6-0.7,1-1.5,1.3-2.3c0.3-0.9,0.5-1.9,0.5-2.9c0-1-0.2-1.9-0.5-2.9c-0.3-0.8-0.8-1.6-1.4-2.3c-0.6-0.6-1.2-1.2-2-1.6
				c-0.8-0.4-1.6-0.6-2.5-0.6L768.2,124.2z"/>
			<path class="st1" d="M784.1,134.9c0,0.3,0,0.7,0.1,1c0.1,0.3,0.1,0.6,0.2,0.9c0.3,0.8,0.8,1.4,1.5,1.9c0.7,0.4,1.5,0.6,2.3,0.6
				c0.7,0,1.4-0.1,2-0.3c0.7-0.2,1.4-0.5,2-0.9l0.9,1.6c-0.8,0.5-1.7,1-2.6,1.3c-0.9,0.3-1.8,0.4-2.7,0.4c-0.8,0-1.7-0.1-2.4-0.4
				c-0.7-0.3-1.4-0.7-1.9-1.3c-0.6-0.6-1-1.4-1.3-2.1c-0.3-1-0.5-2-0.5-3c0-0.9,0.1-1.8,0.4-2.6c0.2-0.8,0.6-1.5,1.2-2.1
				c0.5-0.6,1.2-1.1,1.9-1.4c0.8-0.4,1.7-0.6,2.7-0.5c0.8,0,1.7,0.1,2.4,0.4c0.6,0.3,1.2,0.7,1.6,1.2c0.4,0.5,0.7,1.1,0.9,1.7
				c0.2,0.6,0.4,1.3,0.4,1.9c0,0.3,0.1,0.6,0.1,1s0,0.6,0,0.9L784.1,134.9z M787.8,129.7c-0.5,0-1,0.1-1.4,0.2
				c-0.4,0.2-0.7,0.4-1,0.7c-0.3,0.3-0.5,0.7-0.7,1.1c-0.2,0.5-0.3,0.9-0.4,1.4h6.7c0-0.5-0.1-0.9-0.2-1.3c-0.1-0.4-0.3-0.7-0.5-1.1
				c-0.3-0.3-0.6-0.6-1-0.7C788.8,129.8,788.3,129.7,787.8,129.7z"/>
			<path class="st1" d="M803.2,130.7c-0.2-0.2-0.4-0.5-0.6-0.6c-0.3-0.2-0.6-0.3-0.9-0.3c-0.3-0.1-0.6-0.1-0.9-0.1
				c-0.3,0-0.6,0-0.9,0.1c-0.3,0.1-0.5,0.2-0.7,0.3c-0.2,0.1-0.4,0.3-0.5,0.5c-0.1,0.2-0.2,0.4-0.2,0.7c0,0.4,0.1,0.7,0.4,1
				c0.4,0.3,0.8,0.6,1.3,0.7l2.5,0.9c0.9,0.2,1.7,0.8,2.3,1.5c0.5,0.6,0.8,1.4,0.7,2.2c0,0.5-0.1,1.1-0.3,1.6
				c-0.2,0.5-0.6,0.9-1,1.2c-0.5,0.4-1,0.6-1.5,0.8c-0.6,0.2-1.3,0.3-2,0.3c-0.8,0-1.7-0.1-2.5-0.5c-0.6-0.3-1.1-0.7-1.5-1.3h-1.3
				v-2.1h2.6c0,0.3,0.1,0.6,0.2,0.9c0.1,0.3,0.4,0.5,0.6,0.6c0.3,0.2,0.6,0.3,0.9,0.4c0.3,0.1,0.7,0.1,1,0.1c0.3,0,0.6,0,0.9-0.1
				c0.3-0.1,0.6-0.2,0.8-0.4c0.2-0.1,0.4-0.3,0.5-0.6c0.1-0.2,0.2-0.5,0.2-0.7c0-0.4-0.1-0.8-0.4-1.1c-0.4-0.4-0.9-0.6-1.4-0.8
				l-2.5-0.9c-0.9-0.3-1.6-0.7-2.2-1.4c-0.5-0.6-0.8-1.3-0.7-2.1c0-0.5,0.1-1,0.3-1.5c0.2-0.5,0.5-0.9,0.9-1.2
				c0.4-0.4,0.9-0.6,1.4-0.8c0.6-0.2,1.3-0.3,1.9-0.3c0.8,0,1.6,0.1,2.3,0.4c0.7,0.3,1.3,0.7,1.7,1.3h1.3v2.1h-2.6
				C803.4,131.2,803.3,130.9,803.2,130.7z"/>
			<path class="st1" d="M807.9,128.1h4.2v10.8h2v2.1H808v-2.1h1.8v-8.6H808L807.9,128.1z M809.4,123.5c0-0.2,0-0.4,0.1-0.6
				c0.1-0.2,0.2-0.4,0.3-0.5c0.1-0.2,0.3-0.3,0.5-0.3c0.4-0.2,0.9-0.2,1.3,0c0.2,0.1,0.4,0.2,0.5,0.3c0.1,0.1,0.3,0.3,0.3,0.5
				c0.1,0.2,0.1,0.4,0.1,0.6c0,0.2,0,0.4-0.1,0.6c-0.1,0.2-0.2,0.4-0.3,0.5c-0.1,0.1-0.3,0.3-0.5,0.4c-0.4,0.2-0.9,0.2-1.3,0
				c-0.2-0.1-0.4-0.2-0.5-0.4c-0.1-0.2-0.3-0.3-0.3-0.5C809.4,123.9,809.4,123.7,809.4,123.5z"/>
			<path class="st1" d="M825.1,139.9c-0.4,0.4-0.9,0.8-1.5,1.1c-0.6,0.3-1.3,0.4-1.9,0.4c-0.8,0-1.7-0.1-2.4-0.5
				c-0.8-0.3-1.4-0.7-2-1.3c-0.6-0.6-1-1.4-1.3-2.2c-0.3-0.9-0.5-1.9-0.5-2.9c0-0.9,0.1-1.9,0.5-2.7c0.3-0.8,0.7-1.5,1.3-2.1
				c0.6-0.6,1.2-1,2-1.4c0.8-0.3,1.7-0.5,2.6-0.5c0.6,0,1.2,0.1,1.8,0.2c0.5,0.2,1.1,0.4,1.5,0.8v-0.7h2.3v12.4
				c0.1,1.7-0.4,3.3-1.5,4.6c-1.2,1.1-2.9,1.7-4.5,1.6c-0.5,0-0.9,0-1.4-0.1c-0.5-0.1-1-0.2-1.5-0.3c-0.5-0.1-0.9-0.3-1.4-0.6
				c-0.5-0.2-0.9-0.5-1.3-0.8l1.2-1.9c0.3,0.2,0.6,0.4,0.9,0.6c0.3,0.2,0.7,0.3,1,0.5c0.4,0.1,0.8,0.2,1.1,0.3
				c0.4,0.1,0.8,0.1,1.2,0.1c0.6,0,1.1-0.1,1.7-0.2c0.4-0.1,0.9-0.4,1.2-0.7c0.3-0.4,0.6-0.9,0.7-1.4c0.2-0.7,0.2-1.5,0.2-2.2
				L825.1,139.9z M822,139.3c0.3,0,0.7,0,1-0.1c0.6-0.1,1.1-0.4,1.5-0.7c0.2-0.2,0.3-0.3,0.5-0.5v-7.1c-0.4-0.4-0.9-0.7-1.5-0.8
				c-0.6-0.2-1.1-0.2-1.7-0.2c-0.5,0-1.1,0.1-1.5,0.3c-0.5,0.2-0.9,0.5-1.3,0.9c-0.4,0.4-0.7,0.9-0.9,1.4c-0.2,0.6-0.3,1.3-0.3,2
				c0,0.7,0.1,1.4,0.3,2.1c0.2,0.6,0.5,1.1,0.8,1.5c0.3,0.4,0.8,0.7,1.3,0.9C820.8,139.2,821.4,139.3,822,139.3L822,139.3z"/>
			<path class="st1" d="M838.7,138.9h1.8V133c0.1-0.8-0.2-1.6-0.8-2.3c-0.6-0.5-1.4-0.8-2.2-0.8c-0.6,0-1.1,0.1-1.6,0.4
				c-0.6,0.3-1.1,0.6-1.6,1v7.6h1.8v2.1h-6v-2.1h1.8v-8.6h-1.8v-2.1h4.1v1.5l0,0c0.3-0.2,0.6-0.5,0.9-0.7c0.3-0.2,0.7-0.4,1-0.6
				c0.3-0.2,0.7-0.3,1.1-0.4c0.4-0.1,0.8-0.1,1.2-0.1c0.6,0,1.3,0.1,1.9,0.3c0.5,0.2,1,0.5,1.4,0.9c0.4,0.4,0.7,0.9,0.9,1.5
				c0.2,0.7,0.3,1.4,0.3,2.2v6.2h1.8v2.1h-6L838.7,138.9z"/>
			<path class="st1" d="M846.8,128.1h4.2v10.8h2v2.1h-6.2v-2.1h1.8v-8.6h-1.9L846.8,128.1z M848.2,123.5c0-0.2,0-0.4,0.1-0.6
				c0.1-0.2,0.2-0.4,0.3-0.5c0.3-0.3,0.7-0.5,1.2-0.5c0.2,0,0.4,0,0.6,0.1c0.2,0.1,0.4,0.2,0.5,0.3c0.1,0.1,0.3,0.3,0.3,0.5
				c0.1,0.2,0.1,0.4,0.1,0.6c0,0.2,0,0.4-0.1,0.6c-0.1,0.2-0.2,0.4-0.3,0.5c-0.1,0.1-0.3,0.3-0.5,0.4c-0.2,0.1-0.4,0.1-0.6,0.1
				c-0.2,0-0.4,0-0.6-0.1c-0.2-0.1-0.4-0.2-0.5-0.4c-0.1-0.2-0.3-0.3-0.3-0.5C848.3,123.9,848.2,123.7,848.2,123.5z"/>
			<path class="st1" d="M863.4,138.9h1.8V133c0.1-0.8-0.2-1.6-0.8-2.3c-0.6-0.5-1.4-0.8-2.2-0.8c-0.6,0-1.1,0.1-1.6,0.4
				c-0.6,0.3-1.1,0.6-1.6,1v7.6h1.8v2.1h-6v-2.1h1.8v-8.6h-1.8v-2.1h4.1v1.5l0,0c0.3-0.2,0.6-0.5,0.9-0.7c0.3-0.2,0.7-0.4,1-0.6
				c0.4-0.1,0.7-0.3,1.1-0.3c0.4-0.1,0.8-0.1,1.2-0.1c0.6,0,1.3,0.1,1.9,0.3c0.5,0.2,1,0.5,1.4,0.9c0.4,0.4,0.7,0.9,0.9,1.5
				c0.2,0.7,0.3,1.4,0.3,2.2v6.2h1.8v2.1h-6.1L863.4,138.9z"/>
			<path class="st1" d="M880.6,139.9c-0.4,0.4-0.9,0.8-1.5,1.1c-0.6,0.3-1.3,0.4-1.9,0.4c-0.8,0-1.7-0.1-2.4-0.5
				c-0.8-0.3-1.4-0.7-2-1.3c-0.6-0.6-1-1.4-1.3-2.2c-0.3-0.9-0.5-1.9-0.5-2.9c0-0.9,0.1-1.9,0.5-2.7c0.3-0.8,0.7-1.5,1.3-2.1
				c0.6-0.6,1.2-1,2-1.4c0.8-0.3,1.7-0.5,2.6-0.5c0.6,0,1.2,0.1,1.8,0.2c0.5,0.2,1.1,0.4,1.5,0.8v-0.7h2.3v12.4
				c0.1,1.7-0.4,3.3-1.5,4.6c-1.2,1.1-2.9,1.7-4.5,1.6c-0.5,0-0.9,0-1.4-0.1c-0.5-0.1-1-0.2-1.5-0.3c-0.5-0.1-0.9-0.3-1.4-0.6
				c-0.5-0.2-0.9-0.5-1.3-0.8l1.2-1.9c0.3,0.2,0.6,0.4,0.9,0.6c0.3,0.2,0.7,0.3,1,0.5c0.4,0.1,0.8,0.2,1.1,0.3
				c0.4,0.1,0.8,0.1,1.2,0.1c0.6,0,1.1-0.1,1.7-0.2c0.4-0.1,0.8-0.4,1.2-0.7c0.3-0.4,0.6-0.9,0.7-1.4c0.2-0.7,0.2-1.5,0.2-2.2
				L880.6,139.9z M877.5,139.3c0.3,0,0.7,0,1-0.1c0.3-0.1,0.6-0.2,0.9-0.3c0.2-0.1,0.5-0.3,0.7-0.4c0.2-0.1,0.4-0.3,0.5-0.5v-7.1
				c-0.4-0.4-0.9-0.7-1.5-0.8c-0.6-0.2-1.1-0.2-1.7-0.2c-0.5,0-1.1,0.1-1.5,0.3c-0.5,0.2-0.9,0.5-1.3,0.9c-0.4,0.4-0.7,0.9-0.9,1.4
				c-0.2,0.6-0.3,1.3-0.3,2c0,0.7,0.1,1.4,0.3,2.1c0.2,0.6,0.5,1.1,0.8,1.5c0.3,0.4,0.8,0.7,1.3,0.9
				C876.3,139.2,876.9,139.3,877.5,139.3L877.5,139.3z"/>
			<path class="st1" d="M777.5,175.7l-2.8-2.7c-0.3,0.4-0.7,0.8-1.1,1.1c-0.4,0.3-0.8,0.6-1.2,0.9c-0.4,0.3-0.9,0.4-1.4,0.6
				c-0.5,0.1-1,0.2-1.6,0.2c-0.7,0-1.5-0.1-2.2-0.4c-0.6-0.3-1.2-0.6-1.8-1.1c-0.5-0.5-0.9-1-1.2-1.6c-0.3-0.6-0.4-1.4-0.4-2.1
				c0-0.5,0.1-1,0.2-1.4c0.1-0.5,0.3-0.9,0.6-1.3c0.3-0.4,0.6-0.7,0.9-1.1c0.5-0.4,1-0.7,1.6-1l-0.8-0.8c-0.2-0.2-0.4-0.4-0.6-0.6
				c-0.2-0.3-0.4-0.5-0.5-0.8c-0.2-0.3-0.3-0.6-0.4-0.9c-0.1-0.3-0.1-0.6-0.1-0.9c0-0.6,0.1-1.2,0.4-1.8c0.2-0.5,0.6-1,1-1.4
				c0.9-0.8,2.1-1.3,3.3-1.3c0.7,0,1.3,0.1,1.9,0.4c0.6,0.2,1.1,0.6,1.5,1c0.4,0.4,0.8,0.9,1,1.4c0.2,0.5,0.4,1.1,0.4,1.7
				c0,0.4,0,0.8-0.1,1.2c-0.1,0.4-0.2,0.7-0.4,1c-0.2,0.3-0.4,0.5-0.6,0.8c-0.2,0.2-0.5,0.5-0.8,0.6c-0.3,0.2-0.5,0.4-0.8,0.5
				c-0.3,0.2-0.6,0.3-0.9,0.5l3.6,3.4c0.2-0.6,0.4-1.1,0.6-1.7c0.2-0.6,0.3-1.1,0.4-1.5h2.2c-0.1,0.8-0.3,1.6-0.6,2.3
				c-0.3,0.8-0.6,1.6-1.1,2.4l3.3,3L777.5,175.7z M767.8,167.7c-0.3,0.1-0.5,0.3-0.7,0.4c-0.2,0.2-0.4,0.4-0.6,0.7
				c-0.3,0.5-0.5,1.1-0.5,1.7c0,0.4,0.1,0.9,0.3,1.3c0.2,0.4,0.4,0.7,0.7,1c0.3,0.3,0.7,0.5,1.1,0.7c0.4,0.2,0.9,0.3,1.4,0.2
				c0.4,0,0.8-0.1,1.2-0.2c0.3-0.1,0.7-0.2,1-0.4c0.3-0.2,0.6-0.4,0.9-0.7c0.3-0.3,0.5-0.5,0.7-0.8l-4.5-4.4L767.8,167.7z
				 M771.5,163.4c0.2-0.2,0.4-0.5,0.5-0.8c0.1-0.3,0.2-0.6,0.2-0.9c0-0.3-0.1-0.7-0.2-1c-0.1-0.3-0.3-0.6-0.6-0.8
				c-0.3-0.2-0.5-0.4-0.9-0.6c-0.3-0.1-0.7-0.2-1-0.2c-0.4,0-0.7,0.1-1.1,0.2c-0.3,0.1-0.6,0.3-0.8,0.5c-0.2,0.2-0.4,0.5-0.5,0.8
				c-0.1,0.3-0.2,0.7-0.2,1c0,0.3,0.1,0.7,0.2,1c0.2,0.4,0.5,0.8,0.9,1.2l1.1,1c0.5-0.2,0.9-0.4,1.3-0.7
				C770.8,164,771.2,163.7,771.5,163.4L771.5,163.4z"/>
			<path class="st1" d="M786,157.1h4v7.2c0.5-0.4,1.1-0.7,1.7-1c0.6-0.2,1.3-0.4,1.9-0.4c0.8,0,1.5,0.2,2.2,0.5
				c0.7,0.3,1.3,0.7,1.7,1.3c0.5,0.6,0.9,1.3,1.1,2c0.6,1.7,0.6,3.5,0,5.2c-0.3,0.8-0.7,1.5-1.2,2.1c-0.5,0.6-1.2,1-1.9,1.3
				c-0.8,0.3-1.6,0.5-2.4,0.5c-0.6,0-1.2-0.1-1.7-0.3c-0.5-0.2-1-0.4-1.4-0.7v0.8h-2.2v-16.4H786V157.1z M793,164.9
				c-0.6,0-1.1,0.1-1.7,0.4c-0.5,0.2-1,0.6-1.4,1v6.6c0.3,0.3,0.7,0.5,1.1,0.7c0.6,0.2,1.2,0.3,1.8,0.3c0.5,0,1-0.1,1.5-0.3
				c0.5-0.2,0.9-0.5,1.2-0.9c0.4-0.4,0.7-0.9,0.8-1.4c0.2-0.6,0.3-1.3,0.3-2c0-0.6-0.1-1.3-0.3-1.9c-0.2-0.5-0.5-1-0.8-1.4
				c-0.3-0.4-0.7-0.7-1.2-0.9C794,165.1,793.5,165,793,164.9z"/>
			<path class="st1" d="M808.7,163.3h4v10.3h1.3v2h-3.6v-1.1c-0.5,0.4-1.2,0.8-1.8,1c-0.7,0.2-1.4,0.4-2.1,0.4
				c-0.6,0-1.1-0.1-1.7-0.3c-0.5-0.2-0.9-0.4-1.3-0.8c-0.4-0.4-0.6-0.9-0.8-1.4c-0.2-0.7-0.3-1.4-0.3-2.1v-5.9h-1.7v-2h4v7.7
				c-0.1,0.8,0.2,1.5,0.7,2.1c0.5,0.5,1.2,0.8,1.9,0.7c0.5,0,1-0.1,1.5-0.3c0.5-0.2,1-0.4,1.5-0.7v-7.5h-1.7L808.7,163.3z"/>
			<path class="st1" d="M816.8,163.3h4v10.3h1.9v2h-5.8v-2h1.8v-8.2h-1.8L816.8,163.3z M818.2,158.9c0-0.2,0-0.4,0.1-0.6
				c0.1-0.2,0.2-0.3,0.3-0.5c0.1-0.1,0.3-0.3,0.5-0.3c0.2-0.1,0.4-0.1,0.6-0.1c0.2,0,0.4,0,0.6,0.1c0.2,0.1,0.3,0.2,0.5,0.3
				c0.1,0.1,0.2,0.3,0.3,0.5c0.1,0.2,0.1,0.4,0.1,0.6c0,0.2,0,0.4-0.1,0.6c-0.1,0.2-0.2,0.4-0.3,0.5c-0.1,0.1-0.3,0.3-0.5,0.4
				c-0.2,0.1-0.4,0.1-0.6,0.1c-0.2,0-0.4,0-0.6-0.1c-0.2-0.1-0.4-0.2-0.5-0.4C818.3,159.7,818.1,159.3,818.2,158.9z"/>
			<path class="st1" d="M824.8,157.1h4v16.4h1.8v2h-5.8v-2h1.8v-14.4h-1.8L824.8,157.1z"/>
			<path class="st1" d="M839.8,157.1h3.9v16.4h1.8v2h-4v-1c-0.4,0.4-0.9,0.7-1.4,0.9c-0.6,0.2-1.2,0.4-1.8,0.3
				c-0.8,0-1.6-0.1-2.3-0.4c-0.7-0.3-1.3-0.7-1.9-1.3c-0.5-0.6-1-1.3-1.2-2.1c-0.3-0.9-0.5-1.8-0.4-2.8c0-0.9,0.1-1.8,0.4-2.6
				c0.3-0.7,0.7-1.4,1.2-2c0.5-0.6,1.2-1,1.9-1.3c0.8-0.3,1.6-0.5,2.5-0.5c0.5,0,1.1,0.1,1.6,0.2c0.5,0.1,1,0.4,1.4,0.7v-4.7h-1.7
				L839.8,157.1z M838.7,174c0.6,0,1.1-0.1,1.7-0.3c0.5-0.2,0.9-0.5,1.2-0.9v-6.9c-0.4-0.3-0.9-0.6-1.4-0.7c-0.5-0.2-1-0.2-1.6-0.2
				c-0.5,0-1,0.1-1.5,0.3c-0.5,0.2-0.9,0.5-1.2,0.9c-0.4,0.4-0.6,0.9-0.8,1.4c-0.2,0.6-0.3,1.2-0.3,1.9c0,0.7,0.1,1.4,0.3,2
				c0.2,0.5,0.4,1,0.8,1.4c0.3,0.4,0.7,0.7,1.2,0.9C837.6,173.9,838.1,174,838.7,174z"/>
			<path class="st1" d="M847.8,163.3h4v10.3h1.8v2h-5.8v-2h1.8v-8.2h-1.8L847.8,163.3z M849.1,158.9c0-0.2,0-0.4,0.1-0.6
				c0.1-0.2,0.2-0.3,0.3-0.5c0.1-0.1,0.3-0.3,0.5-0.3c0.2-0.1,0.4-0.1,0.6-0.1c0.2,0,0.4,0,0.6,0.1c0.2,0.1,0.3,0.2,0.5,0.3
				c0.1,0.1,0.3,0.3,0.3,0.5c0.1,0.2,0.1,0.4,0.1,0.6c0,0.2,0,0.4-0.1,0.6c-0.1,0.2-0.2,0.4-0.3,0.5c-0.1,0.1-0.3,0.3-0.5,0.4
				c-0.2,0.1-0.4,0.1-0.6,0.1c-0.2,0-0.4,0-0.6-0.1c-0.4-0.2-0.7-0.5-0.8-0.9C849.2,159.3,849.1,159.1,849.1,158.9z"/>
			<path class="st1" d="M864,173.6h1.7v-5.6c0.1-0.8-0.2-1.6-0.7-2.1c-0.6-0.5-1.3-0.8-2.1-0.7c-0.5,0-1.1,0.1-1.6,0.4
				c-0.5,0.3-1,0.6-1.5,0.9v7.2h1.7v2h-5.8v-2h1.7v-8.2h-1.7v-2h3.9v1.4l0,0c0.3-0.2,0.5-0.5,0.8-0.6c0.3-0.2,0.6-0.4,0.9-0.5
				c0.3-0.2,0.7-0.3,1-0.4c0.4-0.1,0.7-0.1,1.1-0.1c0.6,0,1.2,0.1,1.8,0.3c0.5,0.2,1,0.5,1.4,0.8c0.4,0.4,0.7,0.9,0.9,1.4
				c0.2,0.7,0.3,1.4,0.3,2.1v5.9h1.7v2H864V173.6z"/>
			<path class="st1" d="M880.7,174.5c-0.4,0.4-0.9,0.8-1.4,1c-0.6,0.2-1.2,0.4-1.8,0.4c-0.8,0-1.6-0.1-2.3-0.4
				c-0.7-0.3-1.3-0.7-1.9-1.3c-0.5-0.6-1-1.3-1.2-2.1c-0.3-0.9-0.5-1.8-0.5-2.8c0-0.9,0.1-1.8,0.4-2.6c0.3-0.7,0.7-1.4,1.2-2
				c0.5-0.6,1.2-1,1.9-1.3c0.8-0.3,1.6-0.5,2.5-0.5c0.6,0,1.1,0.1,1.7,0.2c0.5,0.2,1,0.4,1.4,0.7v-0.6h2.2v11.8
				c0.1,1.6-0.4,3.2-1.4,4.4c-1.2,1.1-2.7,1.6-4.3,1.5c-0.4,0-0.9,0-1.3-0.1c-0.5-0.1-0.9-0.2-1.4-0.3c-0.5-0.1-0.9-0.3-1.3-0.5
				c-0.4-0.2-0.8-0.5-1.2-0.8l1.2-1.8c0.2,0.2,0.5,0.4,0.8,0.6c0.3,0.2,0.7,0.3,1,0.4c0.4,0.1,0.7,0.2,1.1,0.3
				c0.4,0.1,0.7,0.1,1.1,0.1c0.5,0,1.1-0.1,1.6-0.2c0.4-0.1,0.8-0.3,1.1-0.7c0.3-0.4,0.5-0.8,0.7-1.3c0.2-0.7,0.2-1.4,0.2-2.1
				L880.7,174.5z M877.8,173.9c0.6,0,1.2-0.1,1.8-0.4c0.2-0.1,0.4-0.2,0.7-0.4c0.2-0.1,0.3-0.3,0.5-0.5V166
				c-0.4-0.4-0.9-0.6-1.4-0.8c-0.5-0.2-1.1-0.2-1.6-0.2c-0.5,0-1,0.1-1.5,0.3c-0.5,0.2-0.9,0.5-1.2,0.9c-0.4,0.4-0.6,0.9-0.8,1.4
				c-0.2,0.6-0.3,1.2-0.3,1.9c0,0.7,0.1,1.4,0.3,2c0.2,0.5,0.4,1,0.8,1.4c0.3,0.4,0.7,0.7,1.2,0.9
				C876.7,173.9,877.3,174,877.8,173.9L877.8,173.9z"/>
			<path class="st1" d="M772.4,198.3c-0.3-0.4-0.7-0.8-1.1-1c-0.5-0.2-1-0.3-1.5-0.3c-0.4,0-0.9,0-1.2,0.2c-0.4,0.2-0.7,0.4-1,0.7
				c-0.3,0.3-0.5,0.6-0.6,1c-0.2,0.4-0.2,0.9-0.2,1.3c0,0.4,0.1,0.8,0.2,1.2c0.1,0.4,0.4,0.7,0.7,1c0.3,0.3,0.6,0.5,1,0.7
				c0.4,0.2,0.8,0.3,1.2,0.3c0.3,0,0.7-0.1,1-0.2c0.3-0.1,0.6-0.3,0.8-0.5c0.2-0.2,0.4-0.4,0.6-0.6c0.2-0.2,0.3-0.4,0.4-0.7l3.3,0.9
				c-0.2,0.5-0.4,1-0.7,1.5c-0.3,0.5-0.8,1-1.3,1.4c-0.6,0.4-1.2,0.8-1.9,1c-0.8,0.3-1.6,0.4-2.5,0.4c-0.9,0-1.8-0.2-2.6-0.5
				c-0.8-0.3-1.4-0.8-2-1.4c-0.6-0.6-1-1.3-1.3-2.1c-0.3-0.8-0.5-1.7-0.5-2.6c0-0.9,0.2-1.7,0.5-2.5c0.3-0.7,0.8-1.4,1.4-2
				c0.6-0.6,1.3-1.1,2.1-1.4c0.8-0.3,1.7-0.5,2.6-0.4c0.7,0,1.3,0,1.9,0.2c0.6,0.2,1.2,0.5,1.8,0.8h2.4v3.6L772.4,198.3z"/>
			<path class="st1" d="M776.8,200.1c0-0.9,0.2-1.7,0.5-2.5c0.3-0.7,0.8-1.4,1.4-2c0.6-0.6,1.3-1.1,2.1-1.4c1.7-0.7,3.6-0.7,5.3,0
				c0.8,0.3,1.5,0.8,2.1,1.4c1.2,1.2,1.8,2.9,1.8,4.6c0,0.9-0.2,1.7-0.5,2.5c-0.3,0.8-0.8,1.5-1.3,2.1c-0.6,0.6-1.3,1.1-2.1,1.4
				c-1.7,0.7-3.6,0.7-5.4,0c-1.6-0.6-2.8-1.9-3.4-3.4C776.9,201.9,776.8,201,776.8,200.1z M780.3,200.1c0,0.4,0.1,0.9,0.2,1.3
				c0.2,0.4,0.4,0.7,0.7,1c0.3,0.3,0.6,0.5,1,0.7c0.4,0.2,0.8,0.2,1.2,0.2c0.4,0,0.8-0.1,1.2-0.2c0.4-0.2,0.7-0.4,0.9-0.7
				c0.3-0.3,0.5-0.6,0.6-1c0.2-0.4,0.2-0.9,0.2-1.3c0-0.5-0.1-0.9-0.2-1.3c-0.1-0.4-0.4-0.7-0.6-1c-0.3-0.3-0.6-0.5-0.9-0.6
				c-0.8-0.3-1.6-0.3-2.3,0c-0.4,0.1-0.7,0.4-1,0.6c-0.3,0.3-0.5,0.6-0.7,1C780.4,199.2,780.3,199.7,780.3,200.1L780.3,200.1z"/>
			<path class="st1" d="M791.1,194h5.6v1.1c0.5-0.4,1.1-0.8,1.7-1c0.6-0.2,1.3-0.4,2-0.4c0.8,0,1.6,0.1,2.4,0.5
				c0.7,0.3,1.2,0.9,1.6,1.5c0.3-0.3,0.6-0.6,0.9-0.8c0.3-0.2,0.7-0.5,1-0.6c0.4-0.2,0.8-0.3,1.2-0.4c0.4-0.1,0.8-0.2,1.2-0.1
				c1.3-0.1,2.5,0.4,3.5,1.2c0.9,1,1.3,2.3,1.2,3.6v4.4h1.8v3.2h-5.6v-7c0-0.6-0.2-1.2-0.5-1.6c-0.4-0.4-0.9-0.6-1.5-0.6
				c-0.4,0-0.9,0.1-1.3,0.3c-0.5,0.3-0.9,0.6-1.2,1.1c0,0.1,0,0.2,0,0.3v4.4h1.8v3.2h-5.6v-7.1c0-0.3,0-0.6-0.2-0.9
				c-0.1-0.3-0.2-0.5-0.4-0.7c-0.2-0.2-0.4-0.3-0.7-0.4c-0.3-0.1-0.5-0.2-0.8-0.2c-0.4,0-0.8,0.1-1.2,0.3c-0.5,0.2-0.9,0.6-1.2,1
				v4.8h2v3.2h-7.7v-3.2h1.8v-5.8h-1.8L791.1,194z"/>
			<path class="st1" d="M816.5,194h5.6v1.1c0.5-0.4,1.1-0.8,1.7-1c0.6-0.2,1.3-0.4,2-0.4c0.8,0,1.7,0.1,2.4,0.5
				c0.7,0.3,1.2,0.9,1.6,1.5c0.3-0.3,0.6-0.6,0.9-0.8c0.3-0.2,0.7-0.5,1.1-0.6c0.4-0.2,0.8-0.3,1.2-0.4c0.4-0.1,0.8-0.2,1.3-0.1
				c1.3-0.1,2.5,0.4,3.5,1.2c0.9,1,1.3,2.3,1.2,3.6v4.4h1.7v3.2H835v-7c0-0.6-0.2-1.2-0.5-1.6c-0.4-0.4-0.9-0.6-1.5-0.6
				c-0.4,0-0.9,0.1-1.2,0.3c-0.5,0.3-0.9,0.6-1.2,1.1c0,0.1,0,0.2,0,0.3v4.4h1.8v3.2h-5.6v-7.1c0-0.3-0.1-0.6-0.2-0.9
				c-0.1-0.3-0.2-0.5-0.4-0.7c-0.2-0.2-0.4-0.3-0.6-0.4c-0.3-0.1-0.5-0.2-0.8-0.2c-0.4,0-0.8,0.1-1.2,0.3c-0.5,0.2-0.9,0.6-1.2,1
				v4.8h2v3.2h-7.7v-3.2h1.8v-5.8h-1.8L816.5,194z"/>
			<path class="st1" d="M841.4,200.1c0-0.9,0.2-1.7,0.5-2.5c0.3-0.7,0.8-1.4,1.4-2c0.6-0.6,1.3-1.1,2.1-1.4c1.7-0.7,3.6-0.7,5.3,0
				c0.8,0.3,1.5,0.8,2.1,1.4c1.2,1.2,1.9,2.9,1.8,4.6c0,0.9-0.2,1.7-0.5,2.5c-0.3,0.8-0.8,1.5-1.3,2.1c-0.6,0.6-1.3,1.1-2.1,1.4
				c-1.7,0.7-3.6,0.7-5.4,0c-1.6-0.6-2.8-1.9-3.4-3.4C841.5,201.9,841.4,201,841.4,200.1z M844.9,200.1c0,0.4,0.1,0.9,0.2,1.3
				c0.3,0.8,0.9,1.4,1.6,1.7c0.4,0.2,0.8,0.2,1.2,0.2c0.4,0,0.8-0.1,1.2-0.2c0.4-0.2,0.7-0.4,0.9-0.7c0.3-0.3,0.5-0.6,0.6-1
				c0.2-0.4,0.2-0.9,0.2-1.3c0-0.5-0.1-0.9-0.2-1.3c-0.1-0.4-0.3-0.7-0.6-1c-0.3-0.3-0.6-0.5-0.9-0.6c-0.8-0.3-1.6-0.3-2.3,0
				c-0.4,0.1-0.7,0.4-1,0.6c-0.3,0.3-0.5,0.6-0.6,1C845,199.2,844.9,199.7,844.9,200.1z"/>
			<path class="st1" d="M865.9,199.2c0-0.6-0.2-1.2-0.5-1.6c-0.4-0.4-0.9-0.6-1.5-0.6c-1,0-1.9,0.5-2.5,1.3v4.7h2v3.2h-7.7v-3.2h1.8
				v-5.8h-1.8V194h5.6v1.1c0.5-0.4,1.1-0.8,1.7-1c0.6-0.2,1.3-0.3,2-0.4c1.3-0.1,2.5,0.4,3.4,1.2c0.9,1,1.3,2.3,1.2,3.6v4.4h1.7v3.2
				h-5.6L865.9,199.2z"/>
			<path class="st1" d="M880.6,197.2c-0.1-0.2-0.3-0.4-0.5-0.5c-0.3-0.1-0.6-0.3-0.9-0.3c-0.4-0.1-0.8-0.1-1.2-0.1
				c-0.2,0-0.4,0-0.5,0c-0.2,0-0.4,0.1-0.5,0.1c-0.2,0.1-0.3,0.2-0.4,0.3c-0.1,0.1-0.2,0.3-0.2,0.5c0,0.1,0,0.2,0,0.3
				c0,0.1,0.1,0.2,0.2,0.2c0.1,0.1,0.2,0.2,0.3,0.2c0.2,0.1,0.4,0.1,0.5,0.2l2.2,0.4c0.7,0.1,1.4,0.3,2,0.6c0.5,0.2,0.9,0.5,1.3,0.8
				c0.3,0.3,0.6,0.7,0.7,1.1c0.2,0.4,0.2,0.8,0.2,1.3c0,0.7-0.2,1.3-0.5,1.9c-0.3,0.5-0.8,1-1.3,1.3c-0.6,0.4-1.2,0.6-1.8,0.8
				c-0.7,0.2-1.3,0.3-2,0.3c-0.4,0-0.8,0-1.2-0.1c-0.3,0-0.7-0.1-1-0.2c-0.3-0.1-0.5-0.2-0.8-0.3c-0.2-0.1-0.4-0.3-0.6-0.4h-2.2
				v-3.3h3.4v0.1c0,0.2,0.1,0.4,0.2,0.6c0.1,0.2,0.3,0.3,0.5,0.4c0.2,0.1,0.5,0.2,0.7,0.3c0.3,0.1,0.6,0.1,0.9,0.1
				c0.5,0,1.1-0.1,1.6-0.3c0.3-0.1,0.5-0.4,0.5-0.7c0-0.2-0.1-0.4-0.2-0.6c-0.2-0.2-0.5-0.3-0.8-0.4l-2.3-0.5
				c-1.2-0.2-2.3-0.6-3.2-1.4c-1.1-1.1-1.4-2.7-0.7-4.1c0.3-0.5,0.7-0.9,1.1-1.2c0.5-0.4,1.1-0.6,1.7-0.8c0.6-0.2,1.3-0.3,2-0.3
				c0.4,0,0.9,0,1.3,0.1c0.3,0.1,0.7,0.1,1,0.2c0.3,0.1,0.6,0.2,0.8,0.3c0.2,0.1,0.4,0.3,0.6,0.4h2.1v3.3h-3.1
				C880.7,197.6,880.7,197.4,880.6,197.2z"/>
			<path class="st1" d="M770.3,229.8c-0.2-0.2-0.4-0.4-0.6-0.6c-0.3-0.2-0.5-0.3-0.8-0.3c-0.3-0.1-0.6-0.1-0.9-0.1
				c-0.3,0-0.6,0-0.9,0.1c-0.2,0.1-0.5,0.2-0.7,0.3c-0.2,0.1-0.3,0.3-0.4,0.5c-0.3,0.5-0.2,1.2,0.2,1.6c0.4,0.3,0.8,0.5,1.2,0.7
				l2.4,0.8c0.9,0.2,1.6,0.7,2.2,1.4c0.5,0.6,0.7,1.3,0.7,2.1c0,0.5-0.1,1-0.3,1.5c-0.2,0.5-0.5,0.8-0.9,1.2
				c-0.4,0.3-0.9,0.6-1.5,0.8c-0.6,0.2-1.2,0.3-1.9,0.3c-0.8,0-1.6-0.1-2.3-0.5c-0.6-0.3-1.1-0.7-1.4-1.2h-1.2v-2h2.5
				c0,0.3,0.1,0.6,0.2,0.9c0.1,0.2,0.3,0.4,0.6,0.6c0.3,0.2,0.5,0.3,0.8,0.3c0.3,0.1,0.6,0.1,0.9,0.1c0.3,0,0.6,0,0.9-0.1
				c0.3-0.1,0.5-0.2,0.8-0.3c0.2-0.1,0.4-0.3,0.5-0.5c0.1-0.2,0.2-0.5,0.2-0.7c0-0.4-0.1-0.7-0.4-1c-0.4-0.3-0.8-0.6-1.3-0.7
				l-2.3-0.9c-0.8-0.3-1.5-0.7-2.1-1.3c-0.5-0.6-0.7-1.3-0.7-2c0-0.5,0.1-1,0.3-1.4c0.2-0.4,0.5-0.8,0.8-1.1
				c0.4-0.3,0.9-0.6,1.3-0.8c0.6-0.2,1.2-0.3,1.8-0.3c0.8,0,1.5,0.1,2.2,0.4c0.6,0.3,1.2,0.7,1.6,1.3h1.2v2.1h-2.4
				C770.5,230.3,770.4,230,770.3,229.8z"/>
			<path class="st1" d="M774.4,227.3h4v10.3h1.8v2h-5.8v-2h1.8v-8.2h-1.8L774.4,227.3z M775.8,222.9c0-0.2,0-0.4,0.1-0.6
				c0.2-0.4,0.5-0.7,0.8-0.8c0.2-0.1,0.4-0.1,0.6-0.1c0.2,0,0.4,0,0.6,0.1c0.4,0.2,0.7,0.5,0.8,0.8c0.1,0.2,0.1,0.4,0.1,0.6
				c0,0.2,0,0.4-0.1,0.6c-0.1,0.2-0.2,0.4-0.3,0.5c-0.1,0.1-0.3,0.3-0.5,0.3c-0.2,0.1-0.4,0.1-0.6,0.1c-0.4,0-0.8-0.2-1.1-0.5
				c-0.1-0.1-0.3-0.3-0.3-0.5C775.9,223.4,775.8,223.2,775.8,222.9L775.8,222.9z"/>
			<path class="st1" d="M789.9,237.6h1.7V232c0.1-0.8-0.2-1.6-0.7-2.1c-0.6-0.5-1.3-0.8-2.1-0.7c-0.5,0-1.1,0.1-1.5,0.4
				c-0.5,0.2-1,0.6-1.5,0.9v7.2h1.7v2h-5.8v-2h1.7v-8.2h-1.7v-2h3.9v1.4l0,0c0.3-0.2,0.5-0.4,0.8-0.6c0.3-0.2,0.6-0.4,0.9-0.5
				c0.3-0.2,0.7-0.3,1-0.4c0.4-0.1,0.7-0.1,1.1-0.1c0.6,0,1.2,0.1,1.8,0.3c0.5,0.2,1,0.5,1.3,0.8c0.4,0.4,0.7,0.9,0.9,1.4
				c0.2,0.7,0.3,1.4,0.3,2.1v5.9h1.7v2h-5.8L789.9,237.6z"/>
			<path class="st1" d="M805.7,230.6c-0.3-0.5-0.7-1-1.3-1.3c-0.5-0.3-1.2-0.4-1.8-0.4c-0.5,0-1,0.1-1.5,0.3
				c-0.5,0.2-0.9,0.5-1.2,0.9c-0.4,0.4-0.6,0.9-0.8,1.4c-0.2,0.6-0.3,1.2-0.3,1.9c0,0.6,0.1,1.3,0.3,1.9c0.2,0.5,0.4,1,0.8,1.4
				c0.3,0.4,0.7,0.7,1.2,0.9c0.5,0.2,0.9,0.3,1.4,0.3c0.7,0,1.4-0.2,2-0.6c0.6-0.4,1.1-1,1.3-1.6l1.8,0.9c-0.2,0.5-0.5,1-0.9,1.4
				c-0.3,0.4-0.7,0.7-1.2,1c-0.4,0.3-0.9,0.5-1.5,0.7c-2.1,0.6-4.4,0-5.9-1.6c-0.5-0.6-1-1.3-1.2-2.1c-0.3-0.8-0.4-1.7-0.4-2.6
				c0-0.9,0.2-1.8,0.5-2.6c0.3-0.8,0.7-1.5,1.3-2.1c0.5-0.6,1.2-1,1.9-1.4c0.7-0.3,1.5-0.5,2.3-0.5c0.8,0,1.5,0.1,2.2,0.4
				c0.7,0.3,1.3,0.7,1.8,1.2h1.2v2L805.7,230.6z"/>
			<path class="st1" d="M811.4,233.7c0,0.3,0,0.7,0.1,1c0.1,0.3,0.1,0.6,0.2,0.8c0.2,0.7,0.7,1.4,1.4,1.8c0.7,0.4,1.4,0.6,2.2,0.6
				c0.6,0,1.3-0.1,1.9-0.3c0.7-0.2,1.3-0.5,1.9-0.8l0.9,1.5c-0.8,0.5-1.6,0.9-2.4,1.2c-0.8,0.3-1.7,0.4-2.5,0.4
				c-0.8,0-1.6-0.1-2.3-0.4c-0.7-0.3-1.3-0.7-1.8-1.2c-0.5-0.6-0.9-1.3-1.2-2c-0.3-0.9-0.4-1.9-0.4-2.9c0-0.8,0.1-1.7,0.4-2.5
				c0.2-0.7,0.6-1.4,1.1-2c0.5-0.6,1.1-1.1,1.8-1.4c0.8-0.4,1.6-0.6,2.5-0.6c0.8,0,1.6,0.1,2.3,0.4c0.6,0.3,1.1,0.6,1.5,1.1
				c0.4,0.5,0.7,1,0.9,1.6c0.2,0.6,0.3,1.2,0.4,1.8c0,0.3,0.1,0.6,0.1,0.9s0,0.6,0,0.9L811.4,233.7z M814.9,228.8
				c-0.5,0-0.9,0.1-1.3,0.2c-0.4,0.1-0.7,0.3-1,0.6c-0.3,0.3-0.5,0.6-0.6,1c-0.2,0.4-0.3,0.9-0.4,1.3h6.4c0-0.4-0.1-0.9-0.2-1.3
				c-0.1-0.4-0.3-0.7-0.5-1c-0.2-0.3-0.6-0.5-0.9-0.7C815.8,228.9,815.3,228.8,814.9,228.8L814.9,228.8z"/>
			<path class="st1" d="M828,236h2.1v-10.4l-3.1,1.8v-4.6l5.5-3.2h1.9V236h2.1v3.6H828V236z"/>
			<path class="st1" d="M840.4,239.6l4-7.1c-0.2,0-0.5,0-0.7,0c-0.2,0-0.4-0.1-0.6-0.1c-0.7-0.1-1.4-0.4-2.1-0.8
				c-0.6-0.4-1.2-0.8-1.7-1.4c-0.5-0.5-0.9-1.2-1.1-1.9c-0.3-0.7-0.4-1.4-0.4-2.2c0-0.9,0.2-1.8,0.5-2.6c0.4-0.8,0.9-1.5,1.5-2.1
				c0.6-0.6,1.4-1.1,2.2-1.4c0.9-0.3,1.8-0.5,2.7-0.5c0.9,0,1.8,0.2,2.6,0.5c0.8,0.3,1.5,0.8,2.2,1.4c0.6,0.6,1.1,1.3,1.5,2.1
				c0.4,0.8,0.5,1.7,0.5,2.6c0,0.4,0,0.8-0.1,1.2c-0.1,0.4-0.2,0.8-0.4,1.2c-0.2,0.4-0.3,0.8-0.5,1.1s-0.4,0.7-0.6,1.1l-4.9,8.9
				L840.4,239.6z M844.8,228.8c0.5,0,1-0.1,1.4-0.3c0.4-0.2,0.8-0.4,1-0.8c0.1-0.2,0.2-0.5,0.3-0.8c0.1-0.3,0.1-0.6,0.1-0.9
				c0-0.3-0.1-0.6-0.2-0.9c-0.1-0.3-0.3-0.6-0.5-0.9c-0.3-0.3-0.6-0.5-0.9-0.7c-0.4-0.2-0.9-0.3-1.3-0.2c-0.4,0-0.7,0.1-1.1,0.2
				c-0.4,0.1-0.7,0.3-1,0.5c-0.3,0.2-0.5,0.5-0.7,0.9c-0.2,0.4-0.3,0.7-0.3,1.1c0,0.8,0.3,1.5,0.9,2c0.3,0.2,0.6,0.4,1,0.6
				C844,228.8,844.4,228.8,844.8,228.8z"/>
			<path class="st1" d="M861.8,225.4c0-0.3-0.1-0.5-0.2-0.8c-0.1-0.3-0.3-0.5-0.5-0.7c-0.2-0.2-0.5-0.4-0.8-0.5
				c-0.3-0.1-0.7-0.2-1-0.2c-0.3,0-0.6,0.1-0.9,0.2c-0.3,0.1-0.5,0.3-0.8,0.4c-0.2,0.2-0.4,0.4-0.5,0.6c-0.2,0.4-0.2,0.8-0.2,1.2
				h-4.1c0-1.7,0.6-3.3,1.8-4.5c0.6-0.6,1.2-1.1,2-1.4c0.8-0.3,1.8-0.5,2.7-0.5c1.7,0,3.4,0.6,4.7,1.8c0.6,0.5,1.1,1.2,1.4,1.9
				c0.7,1.4,0.7,3.1,0,4.6c-0.3,0.7-0.8,1.3-1.4,1.7c0.3,0.2,0.6,0.4,0.9,0.7c0.3,0.3,0.5,0.6,0.7,1c0.2,0.4,0.4,0.8,0.5,1.2
				c0.1,0.5,0.2,0.9,0.2,1.4c0,0.8-0.2,1.7-0.5,2.4c-0.4,0.8-0.8,1.4-1.5,2c-1.3,1.2-3.1,1.9-4.9,1.9c-0.9,0-1.7-0.1-2.6-0.4
				c-0.8-0.3-1.5-0.7-2.1-1.2c-0.6-0.5-1.1-1.1-1.4-1.8c-0.3-0.5-0.5-1.1-0.7-1.7c-0.1-0.5-0.1-1-0.1-1.4h4.1
				c0.1,1.5,1.4,2.7,2.9,2.7c0.3,0,0.6-0.1,0.9-0.2c0.3-0.1,0.6-0.3,0.9-0.5c0.2-0.2,0.4-0.5,0.6-0.8c0.1-0.3,0.2-0.6,0.2-0.9
				c0-0.3-0.1-0.7-0.2-1c-0.1-0.3-0.3-0.6-0.5-0.8c-0.3-0.2-0.6-0.4-0.9-0.5c-0.4-0.1-0.8-0.2-1.1-0.2h-1.8v-3.6h1.9
				c0.3,0,0.7-0.1,1-0.2c0.3-0.1,0.5-0.2,0.8-0.4c0.2-0.2,0.4-0.4,0.5-0.7C861.7,226,861.8,225.7,861.8,225.4z"/>
			<path class="st1" d="M867.3,230.8l7.1-11.1h4.4l-7,11.1h4.2V227l4.1-0.1v3.9h2.8v3.3h-2.8v1.8h2.5v3.6h-8.5V236h1.9v-1.8h-8.7
				L867.3,230.8z"/>
			<g class="st2">
				<polyline class="st3" points="611.9,160.1 494.5,23.2 273,253.7 61.5,15.2 				"/>
				<polyline class="st3" points="289.5,23.2 472.5,122.2 575,327.7 701.5,235.9 763.5,304.2 882.5,304.2 959.5,242.2 959.5,169.2 
					1044.5,93.2 				"/>
				<polyline class="st3" points="760,51.7 472.5,122.2 494.5,23.2 				"/>
				<line class="st3" x1="272.5" y1="253.2" x2="289" y2="22.7"/>
				<line class="st3" x1="586.3" y1="219.7" x2="369.5" y2="304.2"/>
				<polyline class="st3" points="763.5,52.2 658.2,117.7 648.5,75.2 627.5,0.2 				"/>
				<path class="st3" d="M595,22.7"/>
				<path class="st3" d="M656.1,141.9"/>
				<polyline class="st3" points="1124.5,141.2 959.5,169.2 1145.5,284.2 				"/>
				<polygon class="st3" points="959.5,242.2 1027.5,284.2 1003,327.7 				"/>
				<polygon class="st3" points="369.5,304.2 472.5,122.2 272.5,253.2 221,327.7 43,266.7 272.5,253.2 				"/>
				<circle class="st1" cx="1044" cy="94.7" r="4"/>
				<circle class="st1" cx="1125" cy="141.7" r="4"/>
				<circle class="st1" cx="1145" cy="284.7" r="4"/>
				<circle class="st1" cx="764" cy="51.7" r="4"/>
				<circle class="st1" cx="472" cy="121.7" r="4"/>
				<circle class="st1" cx="369" cy="303.7" r="4"/>
			</g>
		</g>
	</g>
	<g id="Calque_3">
		<g>
			<polygon class="st4" points="701.5,235.9 658.7,118.1 551.2,214.8 			"/>
			<g>
				<rect x="649.6" y="177" class="st1" width="8.6" height="29.5"/>
				<path class="st1" d="M630.5,194.8l2.6-9.3l2.6,9.3H630.5z M628.4,177l-10.6,29.5h9.5l1.6-4.8h8.2l1.6,4.8h9.5L637.7,177
					C637.7,177,628.4,177,628.4,177z"/>
				<polygon class="st1" points="583,206.5 591.3,206.5 591.3,189.9 597,202 602.5,202 608.1,189.9 608.1,206.5 616.5,206.5 
					616.5,177 606.5,177 599.9,191.4 593.2,177 583,177 				"/>
				<polygon class="st1" points="661.4,177 661.4,206.5 670,206.5 670,195.1 680.8,195.1 681.9,188.1 670,188.1 670,184 682.6,184 
					683.8,177 				"/>
			</g>
		</g>
	</g>
</g>
</svg>
