<svg id="bbb4d8df-fdd2-4b53-9b6c-b34ad1c7bf8d" data-name="Calque 1" xmlns="http://www.w3.org/2000/svg" viewBox="0 0 200 200"><title>human</title><path d="M95.74,70.23a140.16,140.16,0,0,1-19.19-1.42,46.24,46.24,0,0,0,38.38,0A140,140,0,0,1,95.74,70.23Z" fill="#000"/><path d="M95.8,5.79a38.37,38.37,0,1,0,38.37,38.37A38.37,38.37,0,0,0,95.8,5.79ZM82.94,46.33c-3.53,0-6.39-4.08-6.39-9.12s2.86-9.12,6.39-9.12,6.38,4.09,6.38,9.12S86.46,46.33,82.94,46.33Zm24.52,0c-3.52,0-6.38-4.08-6.38-9.12s2.86-9.12,6.38-9.12,6.39,4.09,6.39,9.12S111,46.33,107.46,46.33Z" fill="#000"/><path d="M149.63,40.41A38.37,38.37,0,1,0,188,78.78,38.37,38.37,0,0,0,149.63,40.41ZM136.77,81c-3.53,0-6.38-4.08-6.38-9.11s2.85-9.12,6.38-9.12,6.38,4.08,6.38,9.12S140.29,81,136.77,81Zm24.53,0c-3.53,0-6.39-4.08-6.39-9.11s2.86-9.12,6.39-9.12,6.38,4.08,6.38,9.12S164.82,81,161.3,81Z" fill="#000"/><path d="M188,176.33V141.72A19.75,19.75,0,0,0,168.31,122H131a19.75,19.75,0,0,0-19.69,19.69v34.61Z" fill="#000"/><path d="M55.49,60.08A38.37,38.37,0,1,0,93.86,98.45,38.37,38.37,0,0,0,55.49,60.08ZM42.63,100.62c-3.52,0-6.38-4.08-6.38-9.11s2.86-9.12,6.38-9.12S49,86.47,49,91.51,46.16,100.62,42.63,100.62Zm24.53,0c-3.53,0-6.38-4.08-6.38-9.11s2.85-9.12,6.38-9.12,6.38,4.08,6.38,9.12S70.69,100.62,67.16,100.62Z" fill="#000"/><path d="M93.86,196V161.39A19.75,19.75,0,0,0,74.17,141.7H36.81a19.75,19.75,0,0,0-19.69,19.69V196Z" fill="#000"/></svg>