<svg id="c5ad8d89-4553-4a3a-a74c-fc695d2cccd1" data-name="Calque 1" xmlns="http://www.w3.org/2000/svg" viewBox="0 0 200 200"><title>interop</title><path d="M193.5,98.08a85.07,85.07,0,0,0-13.81-46.51h10.52V5.73H144.37V20.8A85.23,85.23,0,0,0,24.87,78.68L4.77,90.28v31.85l27.58,15.93.13-.08a85.26,85.26,0,0,0,102.76,41.07L164.6,196V162A85.13,85.13,0,0,0,193.5,98.08ZM108,20a77.54,77.54,0,0,1,36.33,9V41.65L122.5,69.42A31.76,31.76,0,0,0,108,65.84a32.14,32.14,0,0,0-32,30l-16.1,2.36V90.28L33.48,75A78.18,78.18,0,0,1,108,20Zm0,156.09a78.09,78.09,0,0,1-69.1-41.87l21-12.12v-8.94L78.3,110.5A32.23,32.23,0,0,0,108,130.31a31.78,31.78,0,0,0,8.27-1.21l15.38,26.64-18.4,10.63,13,7.51A78,78,0,0,1,108,176.12Zm36.51-27.8-15.16-26.26A31.81,31.81,0,0,0,133.87,79l21.58-27.4h15.12a77.57,77.57,0,0,1-6,100.12V136.74Z" fill="#000"/></svg>