<svg id="56b9b5fa-6407-4303-8431-11038f355472" data-name="Calque 1" xmlns="http://www.w3.org/2000/svg" viewBox="0 0 200 200"><title>time</title><path d="M61.28,116.3a5,5,0,1,1-5-5,5,5,0,0,1,5,5Zm3.36,25.12a5,5,0,1,0,7.08,0,5,5,0,0,0-7.08,0ZM96.8,80.62a5.07,5.07,0,1,0-5.06-5.07,5,5,0,0,0,1.46,3.56,5.07,5.07,0,0,0,3.6,1.51ZM64.44,91.18a5,5,0,0,0,7.12,0l0,0,.08-.08a5,5,0,0,0-7.12-7.12l-.16.16a5,5,0,0,0,0,7.12Zm32.48,60.56a5,5,0,1,0,5.06,5,5,5,0,0,0-5.06-5ZM122,141.26a5,5,0,1,0,7.12,7.12,5,5,0,1,0-7.12-7.12Zm15.39-30.18a5.06,5.06,0,0,0-3.6,8.62,4.9,4.9,0,0,0,3.56,1.47,5.07,5.07,0,0,0,5.06-5.07,5,5,0,0,0-5-5ZM97,197A80.72,80.72,0,0,1,87.58,36.11V23.89h-5A4.55,4.55,0,0,1,78,19.34V8.22a4.55,4.55,0,0,1,4.55-4.55h29a4.55,4.55,0,0,1,4.55,4.55V19.34a4.55,4.55,0,0,1-4.55,4.55h-5V36.07A80.27,80.27,0,0,1,147.08,53l6.57-6.56-.6-.6a4.55,4.55,0,0,1,0-6.44l9-9a4.56,4.56,0,0,1,6.45,0l14.6,14.59a4.56,4.56,0,0,1,0,6.45l-9,9a4.56,4.56,0,0,1-6.45,0l-.59-.59-6.57,6.57A80.7,80.7,0,0,1,97,197Zm62-80.74a62,62,0,1,0-62,62,62.06,62.06,0,0,0,62-62ZM129.48,83.5a5.07,5.07,0,0,1,.27,6.85l-20.57,24.09A12.5,12.5,0,1,1,98.54,103.8l24.09-20.57a5.06,5.06,0,0,1,6.85.27ZM100.4,112.62a5,5,0,1,0,0,7.12,5,5,0,0,0,0-7.12Zm0,0" fill="#000"/></svg>