<svg id="6b70caea-4f33-4c77-940c-6aa0546fb0ef" data-name="Calque 1" xmlns="http://www.w3.org/2000/svg" viewBox="0 0 200 200"><title>ux</title><path d="M19.24,181l14.31-2.2,44.81-49L34.72,82.16l-14.2-2.29V63.76H46.9l51,50,50.54-50h27.43V79.87l-14.19,2.29L118,129.83l45.73,48.87,15,2.29v16H112.1V181l13.5-1.1L98.37,146.21,71,179.89,84.64,181v16H19.24Z" fill="#000"/><path d="M99.07,4A38.93,38.93,0,1,0,138,42.93,38.93,38.93,0,0,0,99.07,4ZM86,45.13c-3.58,0-6.48-4.14-6.48-9.25s2.9-9.25,6.48-9.25,6.47,4.14,6.47,9.25S89.59,45.13,86,45.13Zm24.88,0c-3.57,0-6.47-4.14-6.47-9.25s2.9-9.25,6.47-9.25,6.48,4.14,6.48,9.25S114.48,45.13,110.9,45.13Z" fill="#000"/></svg>